<svg width="21" height="21" viewBox="0 0 21 21" fill="none" xmlns="http://www.w3.org/2000/svg">
<path d="M10.4 4.02133C12.3529 4.02133 13.6702 4.86489 14.4213 5.56978L17.3564 2.704C15.5538 1.02844 13.208 0 10.4 0C6.33243 0 2.81954 2.33422 1.10931 5.73156L4.47198 8.34311C5.31554 5.83556 7.64976 4.02133 10.4 4.02133Z" fill="#EA4335"/>
<path d="M20.384 10.6311C20.384 9.77599 20.3147 9.15199 20.1645 8.50488H10.4V12.3644H16.1316C16.016 13.3235 15.392 14.768 14.0054 15.7387L17.2871 18.2809C19.2516 16.4667 20.384 13.7973 20.384 10.6311Z" fill="#4285F4"/>
<path d="M4.48356 12.4569C4.264 11.8098 4.13689 11.1164 4.13689 10.4C4.13689 9.68355 4.264 8.99022 4.472 8.34311L1.10933 5.73155C0.404444 7.14133 0 8.72444 0 10.4C0 12.0756 0.404444 13.6587 1.10933 15.0684L4.48356 12.4569Z" fill="#FBBC05"/>
<path d="M10.4 20.8C13.208 20.8 15.5654 19.8756 17.2871 18.2809L14.0054 15.7387C13.1271 16.3511 11.9485 16.7787 10.4 16.7787C7.6498 16.7787 5.31558 14.9644 4.48358 12.4569L1.12091 15.0684C2.83113 18.4658 6.33247 20.8 10.4 20.8Z" fill="#34A853"/>
</svg>
