<svg width="73" height="33" viewBox="0 0 73 33" fill="none" xmlns="http://www.w3.org/2000/svg">
<path d="M7.92559 12.1704L12.6095 22.2677L17.3702 12.1704H25.1254L14.8746 31.8658H10.2291L0.0935059 12.1704H7.92559Z" fill="#0E0E0E"/>
<path d="M34.4732 12.1704V31.8658H27.5242V12.1704H34.4732ZM27.0635 4.60711C27.0635 4.06961 27.1658 3.57051 27.3706 3.1098C27.5754 2.62349 27.8569 2.20117 28.2152 1.84284C28.5736 1.48451 28.9831 1.20297 29.4438 0.998207C29.9301 0.793446 30.442 0.691066 30.9795 0.691066C31.517 0.691066 32.0161 0.793446 32.4768 0.998207C32.9631 1.20297 33.3854 1.48451 33.7438 1.84284C34.1021 2.20117 34.3836 2.62349 34.5884 3.1098C34.7932 3.57051 34.8955 4.06961 34.8955 4.60711C34.8955 5.1446 34.7932 5.6565 34.5884 6.14281C34.3836 6.60352 34.1021 7.01304 33.7438 7.37137C33.3854 7.7297 32.9631 8.01125 32.4768 8.21601C32.0161 8.42077 31.517 8.52315 30.9795 8.52315C30.442 8.52315 29.9301 8.42077 29.4438 8.21601C28.9831 8.01125 28.5736 7.7297 28.2152 7.37137C27.8569 7.01304 27.5754 6.60352 27.3706 6.14281C27.1658 5.6565 27.0635 5.1446 27.0635 4.60711Z" fill="#0E0E0E"/>
<path d="M45.0128 21.9605C45.0128 22.6004 45.128 23.2019 45.3583 23.765C45.5887 24.3025 45.8958 24.776 46.2798 25.1855C46.6893 25.595 47.1628 25.915 47.7003 26.1453C48.2634 26.3757 48.8649 26.4909 49.5047 26.4909C50.119 26.4909 50.6949 26.3757 51.2324 26.1453C51.7955 25.915 52.269 25.595 52.6529 25.1855C53.0624 24.776 53.3824 24.3025 53.6127 23.765C53.8687 23.2275 53.9967 22.6516 53.9967 22.0373C53.9967 21.423 53.8687 20.8472 53.6127 20.3097C53.3824 19.7466 53.0624 19.2603 52.6529 18.8507C52.269 18.4412 51.7955 18.1213 51.2324 17.8909C50.6949 17.6606 50.119 17.5454 49.5047 17.5454C48.8905 17.5454 48.3018 17.6606 47.7387 17.8909C47.2012 18.1213 46.7277 18.4412 46.3181 18.8507C45.9342 19.2603 45.6143 19.7338 45.3583 20.2713C45.128 20.7832 45.0128 21.3463 45.0128 21.9605ZM53.7663 0H60.7537V31.8658H53.7663V29.6774C52.2818 31.5459 50.2726 32.4801 47.7387 32.4801C46.3054 32.4801 44.9872 32.2114 43.7842 31.6739C42.5813 31.1364 41.5319 30.3941 40.6361 29.4471C39.7402 28.5001 39.0364 27.3867 38.5245 26.1069C38.0382 24.8272 37.795 23.4451 37.795 21.9605C37.795 20.5528 38.0254 19.2219 38.4861 17.9677C38.9724 16.688 39.6506 15.5746 40.5209 14.6276C41.3911 13.6805 42.4277 12.9383 43.6307 12.4008C44.8592 11.8377 46.203 11.5562 47.6619 11.5562C50.119 11.5562 52.1538 12.4136 53.7663 14.1285V0Z" fill="#0E0E0E"/>
<path d="M72.4369 12.1704V31.8658H65.4878V12.1704H72.4369ZM65.0271 4.60711C65.0271 4.06961 65.1295 3.57051 65.3342 3.1098C65.539 2.62349 65.8205 2.20117 66.1789 1.84284C66.5372 1.48451 66.9467 1.20297 67.4074 0.998207C67.8937 0.793446 68.4056 0.691066 68.9431 0.691066C69.4806 0.691066 69.9797 0.793446 70.4405 0.998207C70.9268 1.20297 71.3491 1.48451 71.7074 1.84284C72.0657 2.20117 72.3473 2.62349 72.552 3.1098C72.7568 3.57051 72.8592 4.06961 72.8592 4.60711C72.8592 5.1446 72.7568 5.6565 72.552 6.14281C72.3473 6.60352 72.0657 7.01304 71.7074 7.37137C71.3491 7.7297 70.9268 8.01125 70.4405 8.21601C69.9797 8.42077 69.4806 8.52315 68.9431 8.52315C68.4056 8.52315 67.8937 8.42077 67.4074 8.21601C66.9467 8.01125 66.5372 7.7297 66.1789 7.37137C65.8205 7.01304 65.539 6.60352 65.3342 6.14281C65.1295 5.6565 65.0271 5.1446 65.0271 4.60711Z" fill="#0E0E0E"/>
</svg>
